{
	"asset":{
		"generator":"Khronos glTF Blender I/O v4.3.47",
		"version":"2.0"
	},
	"scene":0,
	"scenes":[
		{
			"name":"Scene",
			"nodes":[
				6
			]
		}
	],
	"nodes":[
		{
			"mesh":0,
			"name":"Body"
		},
		{
			"mesh":1,
			"name":"Head"
		},
		{
			"mesh":2,
			"name":"TailLight1",
			"scale":[
				1.1429978609085083,
				0.5617632269859314,
				0.27385616302490234
			],
			"translation":[
				-3.2197561264038086,
				2.529414415359497,
				11.512628555297852
			]
		},
		{
			"mesh":3,
			"name":"TailLight2",
			"scale":[
				1.1429978609085083,
				0.5617632269859314,
				0.27385616302490234
			],
			"translation":[
				3.2344512939453125,
				2.529414415359497,
				11.512628555297852
			]
		},
		{
			"mesh":4,
			"name":"Track1",
			"translation":[
				0,
				-0.44672298431396484,
				0
			]
		},
		{
			"mesh":5,
			"name":"Track2",
			"translation":[
				0,
				-0.44672298431396484,
				0
			]
		},
		{
			"children":[
				0,
				1,
				2,
				3,
				4,
				5
			],
			"name":"Tank",
			"translation":[
				0,
				-0.25105828046798706,
				0
			]
		}
	],
	"materials":[
		{
			"doubleSided":true,
			"name":"green",
			"pbrMetallicRoughness":{
				"baseColorTexture":{
					"index":0
				},
				"metallicFactor":0,
				"roughnessFactor":0.5
			}
		},
		{
			"doubleSided":true,
			"name":"head",
			"pbrMetallicRoughness":{
				"baseColorTexture":{
					"index":1
				},
				"metallicFactor":0,
				"roughnessFactor":0.5
			}
		},
		{
			"doubleSided":true,
			"name":"tail lights",
			"pbrMetallicRoughness":{
				"baseColorFactor":[
					0.7237082123756409,
					0.14506246149539948,
					0.09506870806217194,
					1
				],
				"metallicFactor":0,
				"roughnessFactor":0.5
			}
		},
		{
			"doubleSided":true,
			"name":"black",
			"pbrMetallicRoughness":{
				"baseColorFactor":[
					0,
					0,
					0,
					1
				],
				"metallicFactor":0,
				"roughnessFactor":0.5
			}
		}
	],
	"meshes":[
		{
			"name":"Cube.003",
			"primitives":[
				{
					"attributes":{
						"POSITION":0,
						"NORMAL":1,
						"TEXCOORD_0":2
					},
					"indices":3,
					"material":0
				}
			]
		},
		{
			"name":"Cylinder",
			"primitives":[
				{
					"attributes":{
						"POSITION":4,
						"NORMAL":5,
						"TEXCOORD_0":6
					},
					"indices":7,
					"material":1
				}
			]
		},
		{
			"name":"Cube",
			"primitives":[
				{
					"attributes":{
						"POSITION":8,
						"NORMAL":9,
						"TEXCOORD_0":10
					},
					"indices":11,
					"material":2
				}
			]
		},
		{
			"name":"Cube.004",
			"primitives":[
				{
					"attributes":{
						"POSITION":12,
						"NORMAL":13,
						"TEXCOORD_0":14
					},
					"indices":11,
					"material":2
				}
			]
		},
		{
			"name":"Cube.001",
			"primitives":[
				{
					"attributes":{
						"POSITION":15,
						"NORMAL":16,
						"TEXCOORD_0":17
					},
					"indices":18,
					"material":3
				}
			]
		},
		{
			"name":"Cube.002",
			"primitives":[
				{
					"attributes":{
						"POSITION":19,
						"NORMAL":20,
						"TEXCOORD_0":21
					},
					"indices":22,
					"material":3
				}
			]
		}
	],
	"textures":[
		{
			"sampler":0,
			"source":0
		},
		{
			"sampler":0,
			"source":1
		}
	],
	"images":[
		{
			"mimeType":"image/png",
			"name":"body",
			"uri":"body.png"
		},
		{
			"mimeType":"image/png",
			"name":"head",
			"uri":"head.png"
		}
	],
	"accessors":[
		{
			"bufferView":0,
			"componentType":5126,
			"count":40,
			"max":[
				6.810422420501709,
				3.2991580963134766,
				11.48653793334961
			],
			"min":[
				-6.810422420501709,
				-0.01853501796722412,
				-10.346367835998535
			],
			"type":"VEC3"
		},
		{
			"bufferView":1,
			"componentType":5126,
			"count":40,
			"type":"VEC3"
		},
		{
			"bufferView":2,
			"componentType":5126,
			"count":40,
			"type":"VEC2"
		},
		{
			"bufferView":3,
			"componentType":5123,
			"count":60,
			"type":"SCALAR"
		},
		{
			"bufferView":4,
			"componentType":5126,
			"count":100,
			"max":[
				4.945571422576904,
				7.972451210021973,
				6.4178466796875
			],
			"min":[
				-4.9455718994140625,
				3.300597667694092,
				-13.604828834533691
			],
			"type":"VEC3"
		},
		{
			"bufferView":5,
			"componentType":5126,
			"count":100,
			"type":"VEC3"
		},
		{
			"bufferView":6,
			"componentType":5126,
			"count":100,
			"type":"VEC2"
		},
		{
			"bufferView":7,
			"componentType":5123,
			"count":156,
			"type":"SCALAR"
		},
		{
			"bufferView":8,
			"componentType":5126,
			"count":24,
			"max":[
				1,
				1,
				1
			],
			"min":[
				-1,
				-1,
				-1
			],
			"type":"VEC3"
		},
		{
			"bufferView":9,
			"componentType":5126,
			"count":24,
			"type":"VEC3"
		},
		{
			"bufferView":10,
			"componentType":5126,
			"count":24,
			"type":"VEC2"
		},
		{
			"bufferView":11,
			"componentType":5123,
			"count":36,
			"type":"SCALAR"
		},
		{
			"bufferView":12,
			"componentType":5126,
			"count":24,
			"max":[
				1,
				1,
				1
			],
			"min":[
				-1,
				-1,
				-1
			],
			"type":"VEC3"
		},
		{
			"bufferView":13,
			"componentType":5126,
			"count":24,
			"type":"VEC3"
		},
		{
			"bufferView":14,
			"componentType":5126,
			"count":24,
			"type":"VEC2"
		},
		{
			"bufferView":15,
			"componentType":5126,
			"count":32,
			"max":[
				6.35940408706665,
				1.6403117179870605,
				9.48261833190918
			],
			"min":[
				3.0417122840881348,
				-1.677381157875061,
				-9.48261833190918
			],
			"type":"VEC3"
		},
		{
			"bufferView":16,
			"componentType":5126,
			"count":32,
			"type":"VEC3"
		},
		{
			"bufferView":17,
			"componentType":5126,
			"count":32,
			"type":"VEC2"
		},
		{
			"bufferView":18,
			"componentType":5123,
			"count":54,
			"type":"SCALAR"
		},
		{
			"bufferView":19,
			"componentType":5126,
			"count":32,
			"max":[
				-3.1340713500976562,
				1.6403117179870605,
				9.48261833190918
			],
			"min":[
				-6.451763153076172,
				-1.677381157875061,
				-9.48261833190918
			],
			"type":"VEC3"
		},
		{
			"bufferView":20,
			"componentType":5126,
			"count":32,
			"type":"VEC3"
		},
		{
			"bufferView":21,
			"componentType":5126,
			"count":32,
			"type":"VEC2"
		},
		{
			"bufferView":22,
			"componentType":5123,
			"count":54,
			"type":"SCALAR"
		}
	],
	"bufferViews":[
		{
			"buffer":0,
			"byteLength":480,
			"byteOffset":0,
			"target":34962
		},
		{
			"buffer":0,
			"byteLength":480,
			"byteOffset":480,
			"target":34962
		},
		{
			"buffer":0,
			"byteLength":320,
			"byteOffset":960,
			"target":34962
		},
		{
			"buffer":0,
			"byteLength":120,
			"byteOffset":1280,
			"target":34963
		},
		{
			"buffer":0,
			"byteLength":1200,
			"byteOffset":1400,
			"target":34962
		},
		{
			"buffer":0,
			"byteLength":1200,
			"byteOffset":2600,
			"target":34962
		},
		{
			"buffer":0,
			"byteLength":800,
			"byteOffset":3800,
			"target":34962
		},
		{
			"buffer":0,
			"byteLength":312,
			"byteOffset":4600,
			"target":34963
		},
		{
			"buffer":0,
			"byteLength":288,
			"byteOffset":4912,
			"target":34962
		},
		{
			"buffer":0,
			"byteLength":288,
			"byteOffset":5200,
			"target":34962
		},
		{
			"buffer":0,
			"byteLength":192,
			"byteOffset":5488,
			"target":34962
		},
		{
			"buffer":0,
			"byteLength":72,
			"byteOffset":5680,
			"target":34963
		},
		{
			"buffer":0,
			"byteLength":288,
			"byteOffset":5752,
			"target":34962
		},
		{
			"buffer":0,
			"byteLength":288,
			"byteOffset":6040,
			"target":34962
		},
		{
			"buffer":0,
			"byteLength":192,
			"byteOffset":6328,
			"target":34962
		},
		{
			"buffer":0,
			"byteLength":384,
			"byteOffset":6520,
			"target":34962
		},
		{
			"buffer":0,
			"byteLength":384,
			"byteOffset":6904,
			"target":34962
		},
		{
			"buffer":0,
			"byteLength":256,
			"byteOffset":7288,
			"target":34962
		},
		{
			"buffer":0,
			"byteLength":108,
			"byteOffset":7544,
			"target":34963
		},
		{
			"buffer":0,
			"byteLength":384,
			"byteOffset":7652,
			"target":34962
		},
		{
			"buffer":0,
			"byteLength":384,
			"byteOffset":8036,
			"target":34962
		},
		{
			"buffer":0,
			"byteLength":256,
			"byteOffset":8420,
			"target":34962
		},
		{
			"buffer":0,
			"byteLength":108,
			"byteOffset":8676,
			"target":34963
		}
	],
	"samplers":[
		{
			"magFilter":9729,
			"minFilter":9987
		}
	],
	"buffers":[
		{
			"byteLength":8784,
			"uri":"tank_gen_1.bin"
		}
	]
}
