{
	"asset":{
		"generator":"Khronos glTF Blender I/O v4.3.47",
		"version":"2.0"
	},
	"scene":0,
	"scenes":[
		{
			"name":"Scene",
			"nodes":[
				5
			]
		}
	],
	"nodes":[
		{
			"mesh":0,
			"name":"Cube.002"
		},
		{
			"mesh":1,
			"name":"Cube.003"
		},
		{
			"mesh":2,
			"name":"Cube.004"
		},
		{
			"children":[
				0,
				1,
				2
			],
			"mesh":3,
			"name":"Crane"
		},
		{
			"mesh":4,
			"name":"Garage"
		},
		{
			"children":[
				3,
				4
			],
			"mesh":5,
			"name":"Base",
			"translation":[
				0,
				-0.7020640969276428,
				0
			]
		}
	],
	"materials":[
		{
			"doubleSided":true,
			"name":"red",
			"pbrMetallicRoughness":{
				"baseColorFactor":[
					0.8027260303497314,
					0.11199608445167542,
					0.1415228545665741,
					0.4
				],
				"metallicFactor":0,
				"roughnessFactor":0.5
			},
			"alphaMode": "BLEND"
		}
	],
	"meshes":[
		{
			"name":"Cube.005",
			"primitives":[
				{
					"attributes":{
						"POSITION":0,
						"NORMAL":1,
						"TEXCOORD_0":2
					},
					"indices":3,
					"material":0
				}
			]
		},
		{
			"name":"Cube.008",
			"primitives":[
				{
					"attributes":{
						"POSITION":4,
						"NORMAL":5,
						"TEXCOORD_0":6
					},
					"indices":7,
					"material":0
				}
			]
		},
		{
			"name":"Cube.009",
			"primitives":[
				{
					"attributes":{
						"POSITION":8,
						"NORMAL":9,
						"TEXCOORD_0":10
					},
					"indices":11,
					"material":0
				}
			]
		},
		{
			"name":"Cube.006",
			"primitives":[
				{
					"attributes":{
						"POSITION":12,
						"NORMAL":13,
						"TEXCOORD_0":14
					},
					"indices":15,
					"material":0
				}
			]
		},
		{
			"name":"Cube.002",
			"primitives":[
				{
					"attributes":{
						"POSITION":16,
						"NORMAL":17,
						"TEXCOORD_0":18
					},
					"indices":19,
					"material":0
				}
			]
		},
		{
			"name":"Cube.001",
			"primitives":[
				{
					"attributes":{
						"POSITION":20,
						"NORMAL":21,
						"TEXCOORD_0":22
					},
					"indices":23,
					"material":0
				}
			]
		}
	],
	"accessors":[
		{
			"bufferView":0,
			"componentType":5126,
			"count":38,
			"max":[
				23.563657760620117,
				32.951534271240234,
				1.8484947681427002
			],
			"min":[
				-8.772897720336914,
				23.62594985961914,
				-1.8484947681427002
			],
			"type":"VEC3"
		},
		{
			"bufferView":1,
			"componentType":5126,
			"count":38,
			"type":"VEC3"
		},
		{
			"bufferView":2,
			"componentType":5126,
			"count":38,
			"type":"VEC2"
		},
		{
			"bufferView":3,
			"componentType":5123,
			"count":66,
			"type":"SCALAR"
		},
		{
			"bufferView":4,
			"componentType":5126,
			"count":32,
			"max":[
				21.27125358581543,
				31.70720672607422,
				1.4122551679611206
			],
			"min":[
				16.305349349975586,
				21.660396575927734,
				-1.4122551679611206
			],
			"type":"VEC3"
		},
		{
			"bufferView":5,
			"componentType":5126,
			"count":32,
			"type":"VEC3"
		},
		{
			"bufferView":6,
			"componentType":5126,
			"count":32,
			"type":"VEC2"
		},
		{
			"bufferView":7,
			"componentType":5123,
			"count":54,
			"type":"SCALAR"
		},
		{
			"bufferView":8,
			"componentType":5126,
			"count":32,
			"max":[
				25.529239654541016,
				31.70720672607422,
				1.4122556447982788
			],
			"min":[
				20.563335418701172,
				21.660396575927734,
				-1.4122556447982788
			],
			"type":"VEC3"
		},
		{
			"bufferView":9,
			"componentType":5126,
			"count":32,
			"type":"VEC3"
		},
		{
			"bufferView":10,
			"componentType":5126,
			"count":32,
			"type":"VEC2"
		},
		{
			"bufferView":11,
			"componentType":5123,
			"count":54,
			"type":"SCALAR"
		},
		{
			"bufferView":12,
			"componentType":5126,
			"count":20,
			"max":[
				-8.027155876159668,
				27.667367935180664,
				3.1146371364593506
			],
			"min":[
				-14.256430625915527,
				22.476486206054688,
				-3.1146371364593506
			],
			"type":"VEC3"
		},
		{
			"bufferView":13,
			"componentType":5126,
			"count":20,
			"type":"VEC3"
		},
		{
			"bufferView":14,
			"componentType":5126,
			"count":20,
			"type":"VEC2"
		},
		{
			"bufferView":15,
			"componentType":5123,
			"count":30,
			"type":"SCALAR"
		},
		{
			"bufferView":16,
			"componentType":5126,
			"count":32,
			"max":[
				5.834600448608398,
				22.519123077392578,
				19.432329177856445
			],
			"min":[
				-27.29133415222168,
				1.3880348205566406,
				-19.432329177856445
			],
			"type":"VEC3"
		},
		{
			"bufferView":17,
			"componentType":5126,
			"count":32,
			"type":"VEC3"
		},
		{
			"bufferView":18,
			"componentType":5126,
			"count":32,
			"type":"VEC2"
		},
		{
			"bufferView":19,
			"componentType":5123,
			"count":54,
			"type":"SCALAR"
		},
		{
			"bufferView":20,
			"componentType":5126,
			"count":20,
			"max":[
				30.124610900878906,
				1.4859131574630737,
				22.06241226196289
			],
			"min":[
				-30.124610900878906,
				-1.4859131574630737,
				-22.06241226196289
			],
			"type":"VEC3"
		},
		{
			"bufferView":21,
			"componentType":5126,
			"count":20,
			"type":"VEC3"
		},
		{
			"bufferView":22,
			"componentType":5126,
			"count":20,
			"type":"VEC2"
		},
		{
			"bufferView":23,
			"componentType":5123,
			"count":30,
			"type":"SCALAR"
		}
	],
	"bufferViews":[
		{
			"buffer":0,
			"byteLength":456,
			"byteOffset":0,
			"target":34962
		},
		{
			"buffer":0,
			"byteLength":456,
			"byteOffset":456,
			"target":34962
		},
		{
			"buffer":0,
			"byteLength":304,
			"byteOffset":912,
			"target":34962
		},
		{
			"buffer":0,
			"byteLength":132,
			"byteOffset":1216,
			"target":34963
		},
		{
			"buffer":0,
			"byteLength":384,
			"byteOffset":1348,
			"target":34962
		},
		{
			"buffer":0,
			"byteLength":384,
			"byteOffset":1732,
			"target":34962
		},
		{
			"buffer":0,
			"byteLength":256,
			"byteOffset":2116,
			"target":34962
		},
		{
			"buffer":0,
			"byteLength":108,
			"byteOffset":2372,
			"target":34963
		},
		{
			"buffer":0,
			"byteLength":384,
			"byteOffset":2480,
			"target":34962
		},
		{
			"buffer":0,
			"byteLength":384,
			"byteOffset":2864,
			"target":34962
		},
		{
			"buffer":0,
			"byteLength":256,
			"byteOffset":3248,
			"target":34962
		},
		{
			"buffer":0,
			"byteLength":108,
			"byteOffset":3504,
			"target":34963
		},
		{
			"buffer":0,
			"byteLength":240,
			"byteOffset":3612,
			"target":34962
		},
		{
			"buffer":0,
			"byteLength":240,
			"byteOffset":3852,
			"target":34962
		},
		{
			"buffer":0,
			"byteLength":160,
			"byteOffset":4092,
			"target":34962
		},
		{
			"buffer":0,
			"byteLength":60,
			"byteOffset":4252,
			"target":34963
		},
		{
			"buffer":0,
			"byteLength":384,
			"byteOffset":4312,
			"target":34962
		},
		{
			"buffer":0,
			"byteLength":384,
			"byteOffset":4696,
			"target":34962
		},
		{
			"buffer":0,
			"byteLength":256,
			"byteOffset":5080,
			"target":34962
		},
		{
			"buffer":0,
			"byteLength":108,
			"byteOffset":5336,
			"target":34963
		},
		{
			"buffer":0,
			"byteLength":240,
			"byteOffset":5444,
			"target":34962
		},
		{
			"buffer":0,
			"byteLength":240,
			"byteOffset":5684,
			"target":34962
		},
		{
			"buffer":0,
			"byteLength":160,
			"byteOffset":5924,
			"target":34962
		},
		{
			"buffer":0,
			"byteLength":60,
			"byteOffset":6084,
			"target":34963
		}
	],
	"buffers":[
		{
			"byteLength":6144,
			"uri":"vehicle_depot.bin"
		}
	]
}
