{
	"asset":{
		"generator":"Khronos glTF Blender I/O v4.3.47",
		"version":"2.0"
	},
	"scene":0,
	"scenes":[
		{
			"name":"Scene",
			"nodes":[
				4
			]
		}
	],
	"nodes":[
		{
			"mesh":0,
			"name":"Body",
			"rotation":[
				-0.70710688829422,
				0,
				0,
				0.7071066498756409
			],
			"translation":[
				0,
				0,
				-0.2576526999473572
			]
		},
		{
			"mesh":1,
			"name":"Head",
			"rotation":[
				0.965925931930542,
				0,
				-0.2588190734386444,
				2.842765489674548e-08
			],
			"scale":[
				0.10565057396888733,
				0.10565057396888733,
				0.10565057396888733
			],
			"translation":[
				0,
				-0.7042656540870667,
				-0.4815019965171814
			]
		},
		{
			"mesh":2,
			"name":"Track1",
			"rotation":[
				-0.70710688829422,
				0,
				0,
				0.7071066498756409
			],
			"translation":[
				0.3650463819503784,
				0,
				-0.1288263499736786
			]
		},
		{
			"mesh":3,
			"name":"Track2",
			"rotation":[
				-0.70710688829422,
				0,
				0,
				0.7071066498756409
			],
			"translation":[
				-0.3722190260887146,
				0,
				-0.1288263499736786
			]
		},
		{
			"children":[
				0,
				1,
				2,
				3
			],
			"name":"Tank",
			"rotation":[
				0.70710688829422,
				0,
				0,
				0.7071066498756409
			],
			"scale":[
				9.465163230895996,
				9.465164184570312,
				9.465164184570312
			],
			"translation":[
				0,
				-2.0203857421875,
				0
			]
		}
	],
	"materials":[
		{
			"doubleSided":true,
			"name":"Material.002",
			"pbrMetallicRoughness":{
				"baseColorTexture":{
					"index":0
				},
				"metallicFactor":0,
				"roughnessFactor":0.5
			}
		},
		{
			"doubleSided":true,
			"name":"Material.001",
			"pbrMetallicRoughness":{
				"baseColorTexture":{
					"index":1
				},
				"metallicFactor":0,
				"roughnessFactor":0.5
			}
		},
		{
			"doubleSided":true,
			"name":"Material.004",
			"pbrMetallicRoughness":{
				"baseColorTexture":{
					"index":2
				},
				"metallicFactor":0,
				"roughnessFactor":0.5
			}
		},
		{
			"doubleSided":true,
			"name":"Material.003",
			"pbrMetallicRoughness":{
				"baseColorTexture":{
					"index":3
				},
				"metallicFactor":0,
				"roughnessFactor":0.5
			}
		}
	],
	"meshes":[
		{
			"name":"Cube.003",
			"primitives":[
				{
					"attributes":{
						"POSITION":0,
						"NORMAL":1,
						"TEXCOORD_0":2
					},
					"indices":3,
					"material":0
				}
			]
		},
		{
			"name":"Cylinder",
			"primitives":[
				{
					"attributes":{
						"POSITION":4,
						"NORMAL":5,
						"TEXCOORD_0":6
					},
					"indices":7,
					"material":1
				}
			]
		},
		{
			"name":"Cube.001",
			"primitives":[
				{
					"attributes":{
						"POSITION":8,
						"NORMAL":9,
						"TEXCOORD_0":10
					},
					"indices":11,
					"material":2
				}
			]
		},
		{
			"name":"Cube.002",
			"primitives":[
				{
					"attributes":{
						"POSITION":12,
						"NORMAL":13,
						"TEXCOORD_0":14
					},
					"indices":15,
					"material":3
				}
			]
		}
	],
	"textures":[
		{
			"sampler":0,
			"source":0
		},
		{
			"sampler":0,
			"source":0
		},
		{
			"sampler":0,
			"source":0
		},
		{
			"sampler":0,
			"source":0
		}
	],
	"images":[
		{
			"mimeType":"image/png",
			"name":"tank",
			"uri":"uv/tank.png"
		}
	],
	"accessors":[
		{
			"bufferView":0,
			"componentType":5126,
			"count":40,
			"max":[
				0.5288988947868347,
				0.1288263499736786,
				0.8920468688011169
			],
			"min":[
				-0.5288988947868347,
				-0.1288263499736786,
				-0.8035011291503906
			],
			"type":"VEC3"
		},
		{
			"bufferView":1,
			"componentType":5126,
			"count":40,
			"type":"VEC3"
		},
		{
			"bufferView":2,
			"componentType":5126,
			"count":40,
			"type":"VEC2"
		},
		{
			"bufferView":3,
			"componentType":5123,
			"count":60,
			"type":"SCALAR"
		},
		{
			"bufferView":4,
			"componentType":5126,
			"count":72,
			"max":[
				3.1204328536987305,
				3.334465980529785,
				2.28839111328125
			],
			"min":[
				-3.597459077835083,
				-11.38353443145752,
				-2.5956554412841797
			],
			"type":"VEC3"
		},
		{
			"bufferView":5,
			"componentType":5126,
			"count":72,
			"type":"VEC3"
		},
		{
			"bufferView":6,
			"componentType":5126,
			"count":72,
			"type":"VEC2"
		},
		{
			"bufferView":7,
			"componentType":5123,
			"count":120,
			"type":"SCALAR"
		},
		{
			"bufferView":8,
			"componentType":5126,
			"count":36,
			"max":[
				0.1288263499736786,
				0.1288263499736786,
				0.7364221215248108
			],
			"min":[
				-0.1288263499736786,
				-0.1288263499736786,
				-0.7364221215248108
			],
			"type":"VEC3"
		},
		{
			"bufferView":9,
			"componentType":5126,
			"count":36,
			"type":"VEC3"
		},
		{
			"bufferView":10,
			"componentType":5126,
			"count":36,
			"type":"VEC2"
		},
		{
			"bufferView":11,
			"componentType":5123,
			"count":60,
			"type":"SCALAR"
		},
		{
			"bufferView":12,
			"componentType":5126,
			"count":36,
			"max":[
				0.1288263499736786,
				0.1288263499736786,
				0.7364221215248108
			],
			"min":[
				-0.1288263499736786,
				-0.1288263499736786,
				-0.7364221215248108
			],
			"type":"VEC3"
		},
		{
			"bufferView":13,
			"componentType":5126,
			"count":36,
			"type":"VEC3"
		},
		{
			"bufferView":14,
			"componentType":5126,
			"count":36,
			"type":"VEC2"
		},
		{
			"bufferView":15,
			"componentType":5123,
			"count":60,
			"type":"SCALAR"
		}
	],
	"bufferViews":[
		{
			"buffer":0,
			"byteLength":480,
			"byteOffset":0,
			"target":34962
		},
		{
			"buffer":0,
			"byteLength":480,
			"byteOffset":480,
			"target":34962
		},
		{
			"buffer":0,
			"byteLength":320,
			"byteOffset":960,
			"target":34962
		},
		{
			"buffer":0,
			"byteLength":120,
			"byteOffset":1280,
			"target":34963
		},
		{
			"buffer":0,
			"byteLength":864,
			"byteOffset":1400,
			"target":34962
		},
		{
			"buffer":0,
			"byteLength":864,
			"byteOffset":2264,
			"target":34962
		},
		{
			"buffer":0,
			"byteLength":576,
			"byteOffset":3128,
			"target":34962
		},
		{
			"buffer":0,
			"byteLength":240,
			"byteOffset":3704,
			"target":34963
		},
		{
			"buffer":0,
			"byteLength":432,
			"byteOffset":3944,
			"target":34962
		},
		{
			"buffer":0,
			"byteLength":432,
			"byteOffset":4376,
			"target":34962
		},
		{
			"buffer":0,
			"byteLength":288,
			"byteOffset":4808,
			"target":34962
		},
		{
			"buffer":0,
			"byteLength":120,
			"byteOffset":5096,
			"target":34963
		},
		{
			"buffer":0,
			"byteLength":432,
			"byteOffset":5216,
			"target":34962
		},
		{
			"buffer":0,
			"byteLength":432,
			"byteOffset":5648,
			"target":34962
		},
		{
			"buffer":0,
			"byteLength":288,
			"byteOffset":6080,
			"target":34962
		},
		{
			"buffer":0,
			"byteLength":120,
			"byteOffset":6368,
			"target":34963
		}
	],
	"samplers":[
		{
			"magFilter":9729,
			"minFilter":9987
		}
	],
	"buffers":[
		{
			"byteLength":6488,
			"uri":"gltf_bin/Tank.bin"
		}
	]
}
