{
	"asset":{
		"generator":"Khronos glTF Blender I/O v4.3.47",
		"version":"2.0"
	},
	"scene":0,
	"scenes":[
		{
			"name":"Scene",
			"nodes":[
				4
			]
		}
	],
	"nodes":[
		{
			"mesh":0,
			"name":"Body"
		},
		{
			"mesh":1,
			"name":"Head"
		},
		{
			"mesh":2,
			"name":"Track1"
		},
		{
			"mesh":3,
			"name":"Track2"
		},
		{
			"children":[
				0,
				1,
				2,
				3
			],
			"name":"Tank",
			"translation":[
				0,
				-0.6602144837379456,
				0
			]
		}
	],
	"materials":[
		{
			"doubleSided":true,
			"name":"Material.002",
			"pbrMetallicRoughness":{
				"baseColorTexture":{
					"index":0
				},
				"metallicFactor":0,
				"roughnessFactor":0.5
			}
		},
		{
			"doubleSided":true,
			"name":"Material.001",
			"pbrMetallicRoughness":{
				"baseColorTexture":{
					"index":1
				},
				"metallicFactor":0,
				"roughnessFactor":0.5
			}
		},
		{
			"doubleSided":true,
			"name":"Material.004",
			"pbrMetallicRoughness":{
				"baseColorTexture":{
					"index":2
				},
				"metallicFactor":0,
				"roughnessFactor":0.5
			}
		},
		{
			"doubleSided":true,
			"name":"Material.003",
			"pbrMetallicRoughness":{
				"baseColorTexture":{
					"index":3
				},
				"metallicFactor":0,
				"roughnessFactor":0.5
			}
		}
	],
	"meshes":[
		{
			"name":"Cube.003",
			"primitives":[
				{
					"attributes":{
						"POSITION":0,
						"NORMAL":1,
						"TEXCOORD_0":2
					},
					"indices":3,
					"material":0
				}
			]
		},
		{
			"name":"Cylinder",
			"primitives":[
				{
					"attributes":{
						"POSITION":4,
						"NORMAL":5,
						"TEXCOORD_0":6
					},
					"indices":7,
					"material":1
				}
			]
		},
		{
			"name":"Cube.001",
			"primitives":[
				{
					"attributes":{
						"POSITION":8,
						"NORMAL":9,
						"TEXCOORD_0":10
					},
					"indices":11,
					"material":2
				}
			]
		},
		{
			"name":"Cube.002",
			"primitives":[
				{
					"attributes":{
						"POSITION":12,
						"NORMAL":13,
						"TEXCOORD_0":14
					},
					"indices":15,
					"material":3
				}
			]
		}
	],
	"textures":[
		{
			"sampler":0,
			"source":0
		},
		{
			"sampler":0,
			"source":0
		},
		{
			"sampler":0,
			"source":0
		},
		{
			"sampler":0,
			"source":0
		}
	],
	"images":[
		{
			"mimeType":"image/png",
			"name":"tank",
			"uri":"uv/tank.png"
		}
	],
	"accessors":[
		{
			"bufferView":0,
			"componentType":5126,
			"count":40,
			"max":[
				6.810422420501709,
				3.2991580963134766,
				11.48653793334961
			],
			"min":[
				-6.810422420501709,
				-0.01853501796722412,
				-10.346367835998535
			],
			"type":"VEC3"
		},
		{
			"bufferView":1,
			"componentType":5126,
			"count":40,
			"type":"VEC3"
		},
		{
			"bufferView":2,
			"componentType":5126,
			"count":40,
			"type":"VEC2"
		},
		{
			"bufferView":3,
			"componentType":5123,
			"count":60,
			"type":"SCALAR"
		},
		{
			"bufferView":4,
			"componentType":5126,
			"count":72,
			"max":[
				4.945571422576904,
				5.669806480407715,
				6.4178466796875
			],
			"min":[
				-4.9455718994140625,
				3.300597667694092,
				-13.604828834533691
			],
			"type":"VEC3"
		},
		{
			"bufferView":5,
			"componentType":5126,
			"count":72,
			"type":"VEC3"
		},
		{
			"bufferView":6,
			"componentType":5126,
			"count":72,
			"type":"VEC2"
		},
		{
			"bufferView":7,
			"componentType":5123,
			"count":120,
			"type":"SCALAR"
		},
		{
			"bufferView":8,
			"componentType":5126,
			"count":36,
			"max":[
				6.35940408706665,
				1.6403117179870605,
				9.48261833190918
			],
			"min":[
				3.0417122840881348,
				-1.677381157875061,
				-9.48261833190918
			],
			"type":"VEC3"
		},
		{
			"bufferView":9,
			"componentType":5126,
			"count":36,
			"type":"VEC3"
		},
		{
			"bufferView":10,
			"componentType":5126,
			"count":36,
			"type":"VEC2"
		},
		{
			"bufferView":11,
			"componentType":5123,
			"count":60,
			"type":"SCALAR"
		},
		{
			"bufferView":12,
			"componentType":5126,
			"count":36,
			"max":[
				-3.1340713500976562,
				1.6403117179870605,
				9.48261833190918
			],
			"min":[
				-6.451763153076172,
				-1.677381157875061,
				-9.48261833190918
			],
			"type":"VEC3"
		},
		{
			"bufferView":13,
			"componentType":5126,
			"count":36,
			"type":"VEC3"
		},
		{
			"bufferView":14,
			"componentType":5126,
			"count":36,
			"type":"VEC2"
		},
		{
			"bufferView":15,
			"componentType":5123,
			"count":60,
			"type":"SCALAR"
		}
	],
	"bufferViews":[
		{
			"buffer":0,
			"byteLength":480,
			"byteOffset":0,
			"target":34962
		},
		{
			"buffer":0,
			"byteLength":480,
			"byteOffset":480,
			"target":34962
		},
		{
			"buffer":0,
			"byteLength":320,
			"byteOffset":960,
			"target":34962
		},
		{
			"buffer":0,
			"byteLength":120,
			"byteOffset":1280,
			"target":34963
		},
		{
			"buffer":0,
			"byteLength":864,
			"byteOffset":1400,
			"target":34962
		},
		{
			"buffer":0,
			"byteLength":864,
			"byteOffset":2264,
			"target":34962
		},
		{
			"buffer":0,
			"byteLength":576,
			"byteOffset":3128,
			"target":34962
		},
		{
			"buffer":0,
			"byteLength":240,
			"byteOffset":3704,
			"target":34963
		},
		{
			"buffer":0,
			"byteLength":432,
			"byteOffset":3944,
			"target":34962
		},
		{
			"buffer":0,
			"byteLength":432,
			"byteOffset":4376,
			"target":34962
		},
		{
			"buffer":0,
			"byteLength":288,
			"byteOffset":4808,
			"target":34962
		},
		{
			"buffer":0,
			"byteLength":120,
			"byteOffset":5096,
			"target":34963
		},
		{
			"buffer":0,
			"byteLength":432,
			"byteOffset":5216,
			"target":34962
		},
		{
			"buffer":0,
			"byteLength":432,
			"byteOffset":5648,
			"target":34962
		},
		{
			"buffer":0,
			"byteLength":288,
			"byteOffset":6080,
			"target":34962
		},
		{
			"buffer":0,
			"byteLength":120,
			"byteOffset":6368,
			"target":34963
		}
	],
	"samplers":[
		{
			"magFilter":9729,
			"minFilter":9987
		}
	],
	"buffers":[
		{
			"byteLength":6488,
			"uri":"gltf_bin/tank.bin"
		}
	]
}
