{
	"asset":{
		"generator":"Khronos glTF Blender I/O v4.3.47",
		"version":"2.0"
	},
	"scene":0,
	"scenes":[
		{
			"name":"Scene",
			"nodes":[
				0,
				1,
				2,
				3,
				4
			]
		}
	],
	"nodes":[
		{
			"mesh":0,
			"name":"Landscape"
		},
		{
			"mesh":1,
			"name":"grass"
		},
		{
			"mesh":2,
			"name":"grass.001"
		},
		{
			"mesh":3,
			"name":"grass.002"
		},
		{
			"mesh":4,
			"name":"grass.003"
		}
	],
	"materials":[
		{
			"doubleSided":true,
			"name":"Material.001",
			"pbrMetallicRoughness":{
				"metallicFactor":0
			}
		},
		{
			"alphaMode":"BLEND",
			"doubleSided":true,
			"emissiveFactor":[
				1,
				1,
				1
			],
			"emissiveTexture":{
				"index":0
			},
			"name":"grass",
			"pbrMetallicRoughness":{
				"baseColorTexture":{
					"index":1
				},
				"metallicFactor":0
			}
		}
	],
	"meshes":[
		{
			"name":"Plane",
			"primitives":[
				{
					"attributes":{
						"POSITION":0,
						"NORMAL":1,
						"TEXCOORD_0":2,
						"COLOR_0":3,
						"COLOR_1":4
					},
					"indices":5,
					"material":0
				}
			]
		},
		{
			"name":"grass",
			"primitives":[
				{
					"attributes":{
						"POSITION":6,
						"NORMAL":7,
						"TEXCOORD_0":8
					},
					"indices":9,
					"material":1
				}
			]
		},
		{
			"name":"grass.001",
			"primitives":[
				{
					"attributes":{
						"POSITION":10,
						"NORMAL":11,
						"TEXCOORD_0":12
					},
					"indices":13,
					"material":1
				}
			]
		},
		{
			"name":"grass.002",
			"primitives":[
				{
					"attributes":{
						"POSITION":14,
						"NORMAL":15,
						"TEXCOORD_0":16
					},
					"indices":9,
					"material":1
				}
			]
		},
		{
			"name":"grass.003",
			"primitives":[
				{
					"attributes":{
						"POSITION":17,
						"NORMAL":18,
						"TEXCOORD_0":19
					},
					"indices":9,
					"material":1
				}
			]
		}
	],
	"textures":[
		{
			"sampler":0,
			"source":0
		},
		{
			"sampler":0,
			"source":0
		}
	],
	"images":[
		{
			"mimeType":"image/png",
			"name":"grass",
			"uri":"grass.png"
		}
	],
	"accessors":[
		{
			"bufferView":0,
			"componentType":5126,
			"count":10404,
			"max":[
				7.800000190734863,
				0,
				7.800000190734863
			],
			"min":[
				-7.800000190734863,
				0,
				-7.800000190734863
			],
			"type":"VEC3"
		},
		{
			"bufferView":1,
			"componentType":5126,
			"count":10404,
			"type":"VEC3"
		},
		{
			"bufferView":2,
			"componentType":5126,
			"count":10404,
			"type":"VEC2"
		},
		{
			"bufferView":3,
			"componentType":5121,
			"count":10404,
			"normalized":true,
			"type":"VEC4"
		},
		{
			"bufferView":4,
			"componentType":5123,
			"count":10404,
			"normalized":true,
			"type":"VEC4"
		},
		{
			"bufferView":5,
			"componentType":5123,
			"count":61206,
			"type":"SCALAR"
		},
		{
			"bufferView":6,
			"componentType":5126,
			"count":8,
			"max":[
				0.17677943408489227,
				0.34045761823654175,
				0.1728471964597702
			],
			"min":[
				-0.17373181879520416,
				-0.020606629550457,
				-0.17766405642032623
			],
			"type":"VEC3"
		},
		{
			"bufferView":7,
			"componentType":5126,
			"count":8,
			"type":"VEC3"
		},
		{
			"bufferView":8,
			"componentType":5126,
			"count":8,
			"type":"VEC2"
		},
		{
			"bufferView":9,
			"componentType":5123,
			"count":12,
			"type":"SCALAR"
		},
		{
			"bufferView":10,
			"componentType":5126,
			"count":8,
			"max":[
				-0.27625128626823425,
				0.3610679805278778,
				0.19061800837516785
			],
			"min":[
				-0.6277472376823425,
				-0.031055033206939697,
				-0.16087794303894043
			],
			"type":"VEC3"
		},
		{
			"bufferView":11,
			"componentType":5126,
			"count":8,
			"type":"VEC3"
		},
		{
			"bufferView":12,
			"componentType":5126,
			"count":8,
			"type":"VEC2"
		},
		{
			"bufferView":13,
			"componentType":5123,
			"count":12,
			"type":"SCALAR"
		},
		{
			"bufferView":14,
			"componentType":5126,
			"count":8,
			"max":[
				-0.7572168111801147,
				0.3078255355358124,
				0.10637587308883667
			],
			"min":[
				-0.9770288467407227,
				-0.03118148446083069,
				-0.11343619227409363
			],
			"type":"VEC3"
		},
		{
			"bufferView":15,
			"componentType":5126,
			"count":8,
			"type":"VEC3"
		},
		{
			"bufferView":16,
			"componentType":5126,
			"count":8,
			"type":"VEC2"
		},
		{
			"bufferView":17,
			"componentType":5126,
			"count":8,
			"max":[
				-1.0748392343521118,
				0.29731619358062744,
				0.16335950791835785
			],
			"min":[
				-1.3970235586166382,
				-0.05513876676559448,
				-0.15882477164268494
			],
			"type":"VEC3"
		},
		{
			"bufferView":18,
			"componentType":5126,
			"count":8,
			"type":"VEC3"
		},
		{
			"bufferView":19,
			"componentType":5126,
			"count":8,
			"type":"VEC2"
		}
	],
	"bufferViews":[
		{
			"buffer":0,
			"byteLength":124848,
			"byteOffset":0,
			"target":34962
		},
		{
			"buffer":0,
			"byteLength":124848,
			"byteOffset":124848,
			"target":34962
		},
		{
			"buffer":0,
			"byteLength":83232,
			"byteOffset":249696,
			"target":34962
		},
		{
			"buffer":0,
			"byteLength":41616,
			"byteOffset":332928,
			"target":34962
		},
		{
			"buffer":0,
			"byteLength":83232,
			"byteOffset":374544,
			"target":34962
		},
		{
			"buffer":0,
			"byteLength":122412,
			"byteOffset":457776,
			"target":34963
		},
		{
			"buffer":0,
			"byteLength":96,
			"byteOffset":580188,
			"target":34962
		},
		{
			"buffer":0,
			"byteLength":96,
			"byteOffset":580284,
			"target":34962
		},
		{
			"buffer":0,
			"byteLength":64,
			"byteOffset":580380,
			"target":34962
		},
		{
			"buffer":0,
			"byteLength":24,
			"byteOffset":580444,
			"target":34963
		},
		{
			"buffer":0,
			"byteLength":96,
			"byteOffset":580468,
			"target":34962
		},
		{
			"buffer":0,
			"byteLength":96,
			"byteOffset":580564,
			"target":34962
		},
		{
			"buffer":0,
			"byteLength":64,
			"byteOffset":580660,
			"target":34962
		},
		{
			"buffer":0,
			"byteLength":24,
			"byteOffset":580724,
			"target":34963
		},
		{
			"buffer":0,
			"byteLength":96,
			"byteOffset":580748,
			"target":34962
		},
		{
			"buffer":0,
			"byteLength":96,
			"byteOffset":580844,
			"target":34962
		},
		{
			"buffer":0,
			"byteLength":64,
			"byteOffset":580940,
			"target":34962
		},
		{
			"buffer":0,
			"byteLength":96,
			"byteOffset":581004,
			"target":34962
		},
		{
			"buffer":0,
			"byteLength":96,
			"byteOffset":581100,
			"target":34962
		},
		{
			"buffer":0,
			"byteLength":64,
			"byteOffset":581196,
			"target":34962
		}
	],
	"samplers":[
		{
			"magFilter":9729,
			"minFilter":9987,
			"wrapS":33071,
			"wrapT":33071
		}
	],
	"buffers":[
		{
			"byteLength":581260,
			"uri":"grass_field.bin"
		}
	]
}
