{
	"asset":{
		"generator":"Khronos glTF Blender I/O v4.3.47",
		"version":"2.0"
	},
	"scene":0,
	"scenes":[
		{
			"name":"Scene",
			"nodes":[
				0,
				1
			]
		}
	],
	"nodes":[
		{
			"mesh":0,
			"name":"Base",
			"translation":[
				0,
				-0.7020640969276428,
				0
			]
		},
		{
			"mesh":1,
			"name":"GarageDoor"
		}
	],
	"materials":[
		{
			"doubleSided":true,
			"name":"base",
			"pbrMetallicRoughness":{
				"baseColorTexture":{
					"index":0
				},
				"metallicFactor":0,
				"roughnessFactor":0.5
			}
		},
		{
			"doubleSided":true,
			"name":"garage",
			"pbrMetallicRoughness":{
				"baseColorTexture":{
					"index":1
				},
				"metallicFactor":0,
				"roughnessFactor":0.5
			}
		},
		{
			"doubleSided":true,
			"name":"crane",
			"pbrMetallicRoughness":{
				"baseColorTexture":{
					"index":2
				},
				"metallicFactor":0,
				"roughnessFactor":0.5
			}
		}
	],
	"meshes":[
		{
			"name":"Cube.001",
			"primitives":[
				{
					"attributes":{
						"POSITION":0,
						"NORMAL":1,
						"TEXCOORD_0":2
					},
					"indices":3,
					"material":0
				},
				{
					"attributes":{
						"POSITION":4,
						"NORMAL":5,
						"TEXCOORD_0":6
					},
					"indices":7,
					"material":1
				},
				{
					"attributes":{
						"POSITION":8,
						"NORMAL":9,
						"TEXCOORD_0":10
					},
					"indices":11,
					"material":2
				}
			]
		},
		{
			"name":"Plane.001",
			"primitives":[
				{
					"attributes":{
						"POSITION":12,
						"NORMAL":13,
						"TEXCOORD_0":14
					},
					"indices":15,
					"material":1
				}
			]
		}
	],
	"textures":[
		{
			"sampler":0,
			"source":0
		},
		{
			"sampler":0,
			"source":1
		},
		{
			"sampler":0,
			"source":2
		}
	],
	"images":[
		{
			"mimeType":"image/png",
			"name":"base",
			"uri":"base.png"
		},
		{
			"mimeType":"image/png",
			"name":"garage",
			"uri":"garage.png"
		},
		{
			"mimeType":"image/png",
			"name":"crane",
			"uri":"crane.png"
		}
	],
	"accessors":[
		{
			"bufferView":0,
			"componentType":5126,
			"count":24,
			"max":[
				30.124610900878906,
				1.4859131574630737,
				22.06241226196289
			],
			"min":[
				-30.124610900878906,
				-1.4859131574630737,
				-22.06241226196289
			],
			"type":"VEC3"
		},
		{
			"bufferView":1,
			"componentType":5126,
			"count":24,
			"type":"VEC3"
		},
		{
			"bufferView":2,
			"componentType":5126,
			"count":24,
			"type":"VEC2"
		},
		{
			"bufferView":3,
			"componentType":5123,
			"count":36,
			"type":"SCALAR"
		},
		{
			"bufferView":4,
			"componentType":5126,
			"count":72,
			"max":[
				5.834600448608398,
				22.519123077392578,
				19.432329177856445
			],
			"min":[
				-27.29133415222168,
				1.373067855834961,
				-19.432329177856445
			],
			"type":"VEC3"
		},
		{
			"bufferView":5,
			"componentType":5126,
			"count":72,
			"type":"VEC3"
		},
		{
			"bufferView":6,
			"componentType":5126,
			"count":72,
			"type":"VEC2"
		},
		{
			"bufferView":7,
			"componentType":5123,
			"count":114,
			"type":"SCALAR"
		},
		{
			"bufferView":8,
			"componentType":5126,
			"count":122,
			"max":[
				25.529239654541016,
				32.951534271240234,
				3.1146371364593506
			],
			"min":[
				-14.256430625915527,
				21.438093185424805,
				-3.1146371364593506
			],
			"type":"VEC3"
		},
		{
			"bufferView":9,
			"componentType":5126,
			"count":122,
			"type":"VEC3"
		},
		{
			"bufferView":10,
			"componentType":5126,
			"count":122,
			"type":"VEC2"
		},
		{
			"bufferView":11,
			"componentType":5123,
			"count":204,
			"type":"SCALAR"
		},
		{
			"bufferView":12,
			"componentType":5126,
			"count":4,
			"max":[
				2.482206344604492,
				19.276206970214844,
				18.288339614868164
			],
			"min":[
				-23.94344711303711,
				1.4286613464355469,
				18.288339614868164
			],
			"type":"VEC3"
		},
		{
			"bufferView":13,
			"componentType":5126,
			"count":4,
			"type":"VEC3"
		},
		{
			"bufferView":14,
			"componentType":5126,
			"count":4,
			"type":"VEC2"
		},
		{
			"bufferView":15,
			"componentType":5123,
			"count":6,
			"type":"SCALAR"
		}
	],
	"bufferViews":[
		{
			"buffer":0,
			"byteLength":288,
			"byteOffset":0,
			"target":34962
		},
		{
			"buffer":0,
			"byteLength":288,
			"byteOffset":288,
			"target":34962
		},
		{
			"buffer":0,
			"byteLength":192,
			"byteOffset":576,
			"target":34962
		},
		{
			"buffer":0,
			"byteLength":72,
			"byteOffset":768,
			"target":34963
		},
		{
			"buffer":0,
			"byteLength":864,
			"byteOffset":840,
			"target":34962
		},
		{
			"buffer":0,
			"byteLength":864,
			"byteOffset":1704,
			"target":34962
		},
		{
			"buffer":0,
			"byteLength":576,
			"byteOffset":2568,
			"target":34962
		},
		{
			"buffer":0,
			"byteLength":228,
			"byteOffset":3144,
			"target":34963
		},
		{
			"buffer":0,
			"byteLength":1464,
			"byteOffset":3372,
			"target":34962
		},
		{
			"buffer":0,
			"byteLength":1464,
			"byteOffset":4836,
			"target":34962
		},
		{
			"buffer":0,
			"byteLength":976,
			"byteOffset":6300,
			"target":34962
		},
		{
			"buffer":0,
			"byteLength":408,
			"byteOffset":7276,
			"target":34963
		},
		{
			"buffer":0,
			"byteLength":48,
			"byteOffset":7684,
			"target":34962
		},
		{
			"buffer":0,
			"byteLength":48,
			"byteOffset":7732,
			"target":34962
		},
		{
			"buffer":0,
			"byteLength":32,
			"byteOffset":7780,
			"target":34962
		},
		{
			"buffer":0,
			"byteLength":12,
			"byteOffset":7812,
			"target":34963
		}
	],
	"samplers":[
		{
			"magFilter":9729,
			"minFilter":9987
		}
	],
	"buffers":[
		{
			"byteLength":7824,
			"uri":"vehicle_depot.bin"
		}
	]
}
