{
	"asset":{
		"generator":"Khronos glTF Blender I/O v4.3.47",
		"version":"2.0"
	},
	"scene":0,
	"scenes":[
		{
			"name":"Scene",
			"nodes":[
				0,
				11
			]
		}
	],
	"nodes":[
		{
			"mesh":0,
			"name":"Base",
			"translation":[
				0,
				-0.7020640969276428,
				0
			]
		},
		{
			"mesh":1,
			"name":"GarageDoor.001",
			"rotation":[
				4.6566123179658803e-10,
				-1.1920928244535389e-07,
				1.1393943099330026e-16,
				1
			],
			"scale":[
				1,
				1.0000001192092896,
				1
			],
			"translation":[
				-0.9266296029090881,
				-5.277783393859863,
				0.04301387444138527
			]
		},
		{
			"children":[
				1
			],
			"name":"Bone.004",
			"rotation":[
				0,
				1.1920927533992653e-07,
				0,
				1
			],
			"scale":[
				1,
				0.9999999403953552,
				1
			],
			"translation":[
				0,
				3.6172075271606445,
				0
			]
		},
		{
			"mesh":2,
			"name":"GarageDoor.002",
			"translation":[
				-0.9266300201416016,
				-1.6605758666992188,
				0.0430145263671875
			]
		},
		{
			"children":[
				2,
				3
			],
			"name":"Bone.003",
			"translation":[
				0,
				3.60945463180542,
				0
			]
		},
		{
			"mesh":3,
			"name":"GarageDoor.003",
			"translation":[
				-0.9266290664672852,
				1.9488787651062012,
				0.04301261901855469
			]
		},
		{
			"children":[
				4,
				5
			],
			"name":"Bone.002",
			"translation":[
				0,
				3.531865119934082,
				0
			]
		},
		{
			"mesh":4,
			"name":"GarageDoor.004",
			"translation":[
				-0.9266290664672852,
				5.480743885040283,
				0.04301261901855469
			]
		},
		{
			"children":[
				6,
				7
			],
			"name":"Bone.001",
			"translation":[
				0,
				3.269927501678467,
				0
			]
		},
		{
			"mesh":5,
			"name":"GarageDoor",
			"translation":[
				-0.9266290664672852,
				8.748568534851074,
				0.04301261901855469
			]
		},
		{
			"children":[
				8,
				9
			],
			"name":"Bone"
		},
		{
			"children":[
				10
			],
			"name":"Armature",
			"translation":[
				-9.803991317749023,
				0.5399866104125977,
				18.24532699584961
			]
		}
	],
	"animations":[
		{
			"channels":[
				{
					"sampler":0,
					"target":{
						"node":10,
						"path":"translation"
					}
				},
				{
					"sampler":1,
					"target":{
						"node":10,
						"path":"rotation"
					}
				},
				{
					"sampler":2,
					"target":{
						"node":10,
						"path":"scale"
					}
				},
				{
					"sampler":3,
					"target":{
						"node":8,
						"path":"translation"
					}
				},
				{
					"sampler":4,
					"target":{
						"node":8,
						"path":"rotation"
					}
				},
				{
					"sampler":5,
					"target":{
						"node":8,
						"path":"scale"
					}
				},
				{
					"sampler":6,
					"target":{
						"node":6,
						"path":"translation"
					}
				},
				{
					"sampler":7,
					"target":{
						"node":6,
						"path":"rotation"
					}
				},
				{
					"sampler":8,
					"target":{
						"node":6,
						"path":"scale"
					}
				},
				{
					"sampler":9,
					"target":{
						"node":4,
						"path":"translation"
					}
				},
				{
					"sampler":10,
					"target":{
						"node":4,
						"path":"rotation"
					}
				},
				{
					"sampler":11,
					"target":{
						"node":4,
						"path":"scale"
					}
				},
				{
					"sampler":12,
					"target":{
						"node":2,
						"path":"translation"
					}
				},
				{
					"sampler":13,
					"target":{
						"node":2,
						"path":"rotation"
					}
				},
				{
					"sampler":14,
					"target":{
						"node":2,
						"path":"scale"
					}
				},
				{
					"sampler":15,
					"target":{
						"node":11,
						"path":"translation"
					}
				},
				{
					"sampler":16,
					"target":{
						"node":11,
						"path":"rotation"
					}
				},
				{
					"sampler":17,
					"target":{
						"node":11,
						"path":"scale"
					}
				}
			],
			"name":"ArmatureAction.001",
			"samplers":[
				{
					"input":29,
					"interpolation":"STEP",
					"output":30
				},
				{
					"input":29,
					"interpolation":"STEP",
					"output":31
				},
				{
					"input":29,
					"interpolation":"STEP",
					"output":32
				},
				{
					"input":29,
					"interpolation":"STEP",
					"output":33
				},
				{
					"input":34,
					"interpolation":"LINEAR",
					"output":35
				},
				{
					"input":29,
					"interpolation":"STEP",
					"output":36
				},
				{
					"input":29,
					"interpolation":"STEP",
					"output":37
				},
				{
					"input":34,
					"interpolation":"LINEAR",
					"output":38
				},
				{
					"input":29,
					"interpolation":"STEP",
					"output":39
				},
				{
					"input":29,
					"interpolation":"STEP",
					"output":40
				},
				{
					"input":34,
					"interpolation":"LINEAR",
					"output":41
				},
				{
					"input":29,
					"interpolation":"STEP",
					"output":42
				},
				{
					"input":29,
					"interpolation":"STEP",
					"output":43
				},
				{
					"input":34,
					"interpolation":"LINEAR",
					"output":44
				},
				{
					"input":29,
					"interpolation":"STEP",
					"output":45
				},
				{
					"input":34,
					"interpolation":"LINEAR",
					"output":46
				},
				{
					"input":29,
					"interpolation":"STEP",
					"output":47
				},
				{
					"input":29,
					"interpolation":"STEP",
					"output":48
				}
			]
		},
		{
			"channels":[
				{
					"sampler":0,
					"target":{
						"node":1,
						"path":"translation"
					}
				},
				{
					"sampler":1,
					"target":{
						"node":1,
						"path":"rotation"
					}
				},
				{
					"sampler":2,
					"target":{
						"node":1,
						"path":"scale"
					}
				}
			],
			"name":"GarageDoor.001Action.003",
			"samplers":[
				{
					"input":29,
					"interpolation":"LINEAR",
					"output":49
				},
				{
					"input":29,
					"interpolation":"LINEAR",
					"output":50
				},
				{
					"input":29,
					"interpolation":"STEP",
					"output":51
				}
			]
		},
		{
			"channels":[
				{
					"sampler":0,
					"target":{
						"node":3,
						"path":"translation"
					}
				},
				{
					"sampler":1,
					"target":{
						"node":3,
						"path":"rotation"
					}
				},
				{
					"sampler":2,
					"target":{
						"node":3,
						"path":"scale"
					}
				}
			],
			"name":"GarageDoor.002Action.002",
			"samplers":[
				{
					"input":29,
					"interpolation":"STEP",
					"output":52
				},
				{
					"input":29,
					"interpolation":"STEP",
					"output":53
				},
				{
					"input":29,
					"interpolation":"STEP",
					"output":54
				}
			]
		},
		{
			"channels":[
				{
					"sampler":0,
					"target":{
						"node":5,
						"path":"translation"
					}
				},
				{
					"sampler":1,
					"target":{
						"node":5,
						"path":"rotation"
					}
				},
				{
					"sampler":2,
					"target":{
						"node":5,
						"path":"scale"
					}
				}
			],
			"name":"GarageDoor.003Action.002",
			"samplers":[
				{
					"input":29,
					"interpolation":"STEP",
					"output":55
				},
				{
					"input":29,
					"interpolation":"STEP",
					"output":56
				},
				{
					"input":29,
					"interpolation":"STEP",
					"output":57
				}
			]
		},
		{
			"channels":[
				{
					"sampler":0,
					"target":{
						"node":7,
						"path":"translation"
					}
				},
				{
					"sampler":1,
					"target":{
						"node":7,
						"path":"rotation"
					}
				},
				{
					"sampler":2,
					"target":{
						"node":7,
						"path":"scale"
					}
				}
			],
			"name":"GarageDoor.004Action.002",
			"samplers":[
				{
					"input":29,
					"interpolation":"STEP",
					"output":58
				},
				{
					"input":29,
					"interpolation":"STEP",
					"output":59
				},
				{
					"input":29,
					"interpolation":"STEP",
					"output":60
				}
			]
		},
		{
			"channels":[
				{
					"sampler":0,
					"target":{
						"node":9,
						"path":"translation"
					}
				},
				{
					"sampler":1,
					"target":{
						"node":9,
						"path":"rotation"
					}
				},
				{
					"sampler":2,
					"target":{
						"node":9,
						"path":"scale"
					}
				}
			],
			"name":"GarageDoorAction.004",
			"samplers":[
				{
					"input":29,
					"interpolation":"STEP",
					"output":61
				},
				{
					"input":29,
					"interpolation":"STEP",
					"output":62
				},
				{
					"input":29,
					"interpolation":"STEP",
					"output":63
				}
			]
		}
	],
	"materials":[
		{
			"doubleSided":true,
			"name":"base",
			"pbrMetallicRoughness":{
				"baseColorTexture":{
					"index":0
				},
				"metallicFactor":0,
				"roughnessFactor":0.5
			}
		},
		{
			"doubleSided":true,
			"name":"garage",
			"pbrMetallicRoughness":{
				"baseColorTexture":{
					"index":1
				},
				"metallicFactor":0,
				"roughnessFactor":0.5
			}
		},
		{
			"doubleSided":true,
			"name":"crane",
			"pbrMetallicRoughness":{
				"baseColorTexture":{
					"index":2
				},
				"metallicFactor":0,
				"roughnessFactor":0.5
			}
		}
	],
	"meshes":[
		{
			"name":"Cube.001",
			"primitives":[
				{
					"attributes":{
						"POSITION":0,
						"NORMAL":1,
						"TEXCOORD_0":2
					},
					"indices":3,
					"material":0
				},
				{
					"attributes":{
						"POSITION":4,
						"NORMAL":5,
						"TEXCOORD_0":6
					},
					"indices":7,
					"material":1
				},
				{
					"attributes":{
						"POSITION":8,
						"NORMAL":9,
						"TEXCOORD_0":10
					},
					"indices":11,
					"material":2
				}
			]
		},
		{
			"name":"Plane.002",
			"primitives":[
				{
					"attributes":{
						"POSITION":12,
						"NORMAL":13,
						"TEXCOORD_0":14
					},
					"indices":15,
					"material":1
				}
			]
		},
		{
			"name":"Plane.003",
			"primitives":[
				{
					"attributes":{
						"POSITION":16,
						"NORMAL":17,
						"TEXCOORD_0":18
					},
					"indices":15,
					"material":1
				}
			]
		},
		{
			"name":"Plane.004",
			"primitives":[
				{
					"attributes":{
						"POSITION":19,
						"NORMAL":20,
						"TEXCOORD_0":21
					},
					"indices":15,
					"material":1
				}
			]
		},
		{
			"name":"Plane.005",
			"primitives":[
				{
					"attributes":{
						"POSITION":22,
						"NORMAL":23,
						"TEXCOORD_0":24
					},
					"indices":15,
					"material":1
				}
			]
		},
		{
			"name":"Plane.001",
			"primitives":[
				{
					"attributes":{
						"POSITION":25,
						"NORMAL":26,
						"TEXCOORD_0":27
					},
					"indices":28,
					"material":1
				}
			]
		}
	],
	"textures":[
		{
			"sampler":0,
			"source":0
		},
		{
			"sampler":0,
			"source":1
		},
		{
			"sampler":0,
			"source":2
		}
	],
	"images":[
		{
			"mimeType":"image/png",
			"name":"base",
			"uri":"base.png"
		},
		{
			"mimeType":"image/png",
			"name":"garage",
			"uri":"garage.png"
		},
		{
			"mimeType":"image/png",
			"name":"crane",
			"uri":"crane.png"
		}
	],
	"skins":[
		{
			"inverseBindMatrices":64,
			"joints":[
				10,
				8,
				6,
				4,
				2
			],
			"name":"Armature"
		}
	],
	"accessors":[
		{
			"bufferView":0,
			"componentType":5126,
			"count":24,
			"max":[
				30.124610900878906,
				1.4859131574630737,
				22.06241226196289
			],
			"min":[
				-30.124610900878906,
				-1.4859131574630737,
				-22.06241226196289
			],
			"type":"VEC3"
		},
		{
			"bufferView":1,
			"componentType":5126,
			"count":24,
			"type":"VEC3"
		},
		{
			"bufferView":2,
			"componentType":5126,
			"count":24,
			"type":"VEC2"
		},
		{
			"bufferView":3,
			"componentType":5123,
			"count":36,
			"type":"SCALAR"
		},
		{
			"bufferView":4,
			"componentType":5126,
			"count":72,
			"max":[
				5.834600448608398,
				22.519123077392578,
				19.432329177856445
			],
			"min":[
				-27.29133415222168,
				1.373067855834961,
				-19.432329177856445
			],
			"type":"VEC3"
		},
		{
			"bufferView":5,
			"componentType":5126,
			"count":72,
			"type":"VEC3"
		},
		{
			"bufferView":6,
			"componentType":5126,
			"count":72,
			"type":"VEC2"
		},
		{
			"bufferView":7,
			"componentType":5123,
			"count":114,
			"type":"SCALAR"
		},
		{
			"bufferView":8,
			"componentType":5126,
			"count":122,
			"max":[
				25.529239654541016,
				32.951534271240234,
				3.1146371364593506
			],
			"min":[
				-14.256430625915527,
				21.438093185424805,
				-3.1146371364593506
			],
			"type":"VEC3"
		},
		{
			"bufferView":9,
			"componentType":5126,
			"count":122,
			"type":"VEC3"
		},
		{
			"bufferView":10,
			"componentType":5126,
			"count":122,
			"type":"VEC2"
		},
		{
			"bufferView":11,
			"componentType":5123,
			"count":204,
			"type":"SCALAR"
		},
		{
			"bufferView":12,
			"componentType":5126,
			"count":4,
			"max":[
				13.2128267288208,
				9.050955772399902,
				0
			],
			"min":[
				-13.2128267288208,
				5.268851280212402,
				0
			],
			"type":"VEC3"
		},
		{
			"bufferView":13,
			"componentType":5126,
			"count":4,
			"type":"VEC3"
		},
		{
			"bufferView":14,
			"componentType":5126,
			"count":4,
			"type":"VEC2"
		},
		{
			"bufferView":15,
			"componentType":5123,
			"count":6,
			"type":"SCALAR"
		},
		{
			"bufferView":16,
			"componentType":5126,
			"count":4,
			"max":[
				13.2128267288208,
				5.268851280212402,
				0
			],
			"min":[
				-13.2128267288208,
				1.7274960279464722,
				0
			],
			"type":"VEC3"
		},
		{
			"bufferView":17,
			"componentType":5126,
			"count":4,
			"type":"VEC3"
		},
		{
			"bufferView":18,
			"componentType":5126,
			"count":4,
			"type":"VEC2"
		},
		{
			"bufferView":19,
			"componentType":5126,
			"count":4,
			"max":[
				13.2128267288208,
				1.7274960279464722,
				0
			],
			"min":[
				-13.2128267288208,
				-1.8584176301956177,
				0
			],
			"type":"VEC3"
		},
		{
			"bufferView":20,
			"componentType":5126,
			"count":4,
			"type":"VEC3"
		},
		{
			"bufferView":21,
			"componentType":5126,
			"count":4,
			"type":"VEC2"
		},
		{
			"bufferView":22,
			"componentType":5126,
			"count":4,
			"max":[
				13.2128267288208,
				-1.8584176301956177,
				0
			],
			"min":[
				-13.2128267288208,
				-5.3922953605651855,
				0
			],
			"type":"VEC3"
		},
		{
			"bufferView":23,
			"componentType":5126,
			"count":4,
			"type":"VEC3"
		},
		{
			"bufferView":24,
			"componentType":5126,
			"count":4,
			"type":"VEC2"
		},
		{
			"bufferView":25,
			"componentType":5126,
			"count":4,
			"max":[
				13.2128267288208,
				-5.3922953605651855,
				0
			],
			"min":[
				-13.2128267288208,
				-8.796589851379395,
				0
			],
			"type":"VEC3"
		},
		{
			"bufferView":26,
			"componentType":5126,
			"count":4,
			"type":"VEC3"
		},
		{
			"bufferView":27,
			"componentType":5126,
			"count":4,
			"type":"VEC2"
		},
		{
			"bufferView":28,
			"componentType":5123,
			"count":6,
			"type":"SCALAR"
		},
		{
			"bufferView":29,
			"componentType":5126,
			"count":2,
			"max":[
				3.3333333333333335
			],
			"min":[
				0
			],
			"type":"SCALAR"
		},
		{
			"bufferView":30,
			"componentType":5126,
			"count":2,
			"type":"VEC3"
		},
		{
			"bufferView":31,
			"componentType":5126,
			"count":2,
			"type":"VEC4"
		},
		{
			"bufferView":32,
			"componentType":5126,
			"count":2,
			"type":"VEC3"
		},
		{
			"bufferView":33,
			"componentType":5126,
			"count":2,
			"type":"VEC3"
		},
		{
			"bufferView":34,
			"componentType":5126,
			"count":81,
			"max":[
				3.3333333333333335
			],
			"min":[
				0
			],
			"type":"SCALAR"
		},
		{
			"bufferView":35,
			"componentType":5126,
			"count":81,
			"type":"VEC4"
		},
		{
			"bufferView":36,
			"componentType":5126,
			"count":2,
			"type":"VEC3"
		},
		{
			"bufferView":37,
			"componentType":5126,
			"count":2,
			"type":"VEC3"
		},
		{
			"bufferView":38,
			"componentType":5126,
			"count":81,
			"type":"VEC4"
		},
		{
			"bufferView":39,
			"componentType":5126,
			"count":2,
			"type":"VEC3"
		},
		{
			"bufferView":40,
			"componentType":5126,
			"count":2,
			"type":"VEC3"
		},
		{
			"bufferView":41,
			"componentType":5126,
			"count":81,
			"type":"VEC4"
		},
		{
			"bufferView":42,
			"componentType":5126,
			"count":2,
			"type":"VEC3"
		},
		{
			"bufferView":43,
			"componentType":5126,
			"count":2,
			"type":"VEC3"
		},
		{
			"bufferView":44,
			"componentType":5126,
			"count":81,
			"type":"VEC4"
		},
		{
			"bufferView":45,
			"componentType":5126,
			"count":2,
			"type":"VEC3"
		},
		{
			"bufferView":46,
			"componentType":5126,
			"count":81,
			"type":"VEC3"
		},
		{
			"bufferView":47,
			"componentType":5126,
			"count":2,
			"type":"VEC4"
		},
		{
			"bufferView":48,
			"componentType":5126,
			"count":2,
			"type":"VEC3"
		},
		{
			"bufferView":49,
			"componentType":5126,
			"count":2,
			"type":"VEC3"
		},
		{
			"bufferView":50,
			"componentType":5126,
			"count":2,
			"type":"VEC4"
		},
		{
			"bufferView":51,
			"componentType":5126,
			"count":2,
			"type":"VEC3"
		},
		{
			"bufferView":52,
			"componentType":5126,
			"count":2,
			"type":"VEC3"
		},
		{
			"bufferView":53,
			"componentType":5126,
			"count":2,
			"type":"VEC4"
		},
		{
			"bufferView":54,
			"componentType":5126,
			"count":2,
			"type":"VEC3"
		},
		{
			"bufferView":55,
			"componentType":5126,
			"count":2,
			"type":"VEC3"
		},
		{
			"bufferView":56,
			"componentType":5126,
			"count":2,
			"type":"VEC4"
		},
		{
			"bufferView":57,
			"componentType":5126,
			"count":2,
			"type":"VEC3"
		},
		{
			"bufferView":58,
			"componentType":5126,
			"count":2,
			"type":"VEC3"
		},
		{
			"bufferView":59,
			"componentType":5126,
			"count":2,
			"type":"VEC4"
		},
		{
			"bufferView":60,
			"componentType":5126,
			"count":2,
			"type":"VEC3"
		},
		{
			"bufferView":61,
			"componentType":5126,
			"count":2,
			"type":"VEC3"
		},
		{
			"bufferView":62,
			"componentType":5126,
			"count":2,
			"type":"VEC4"
		},
		{
			"bufferView":63,
			"componentType":5126,
			"count":2,
			"type":"VEC3"
		},
		{
			"bufferView":64,
			"componentType":5126,
			"count":5,
			"type":"MAT4"
		}
	],
	"bufferViews":[
		{
			"buffer":0,
			"byteLength":288,
			"byteOffset":0,
			"target":34962
		},
		{
			"buffer":0,
			"byteLength":288,
			"byteOffset":288,
			"target":34962
		},
		{
			"buffer":0,
			"byteLength":192,
			"byteOffset":576,
			"target":34962
		},
		{
			"buffer":0,
			"byteLength":72,
			"byteOffset":768,
			"target":34963
		},
		{
			"buffer":0,
			"byteLength":864,
			"byteOffset":840,
			"target":34962
		},
		{
			"buffer":0,
			"byteLength":864,
			"byteOffset":1704,
			"target":34962
		},
		{
			"buffer":0,
			"byteLength":576,
			"byteOffset":2568,
			"target":34962
		},
		{
			"buffer":0,
			"byteLength":228,
			"byteOffset":3144,
			"target":34963
		},
		{
			"buffer":0,
			"byteLength":1464,
			"byteOffset":3372,
			"target":34962
		},
		{
			"buffer":0,
			"byteLength":1464,
			"byteOffset":4836,
			"target":34962
		},
		{
			"buffer":0,
			"byteLength":976,
			"byteOffset":6300,
			"target":34962
		},
		{
			"buffer":0,
			"byteLength":408,
			"byteOffset":7276,
			"target":34963
		},
		{
			"buffer":0,
			"byteLength":48,
			"byteOffset":7684,
			"target":34962
		},
		{
			"buffer":0,
			"byteLength":48,
			"byteOffset":7732,
			"target":34962
		},
		{
			"buffer":0,
			"byteLength":32,
			"byteOffset":7780,
			"target":34962
		},
		{
			"buffer":0,
			"byteLength":12,
			"byteOffset":7812,
			"target":34963
		},
		{
			"buffer":0,
			"byteLength":48,
			"byteOffset":7824,
			"target":34962
		},
		{
			"buffer":0,
			"byteLength":48,
			"byteOffset":7872,
			"target":34962
		},
		{
			"buffer":0,
			"byteLength":32,
			"byteOffset":7920,
			"target":34962
		},
		{
			"buffer":0,
			"byteLength":48,
			"byteOffset":7952,
			"target":34962
		},
		{
			"buffer":0,
			"byteLength":48,
			"byteOffset":8000,
			"target":34962
		},
		{
			"buffer":0,
			"byteLength":32,
			"byteOffset":8048,
			"target":34962
		},
		{
			"buffer":0,
			"byteLength":48,
			"byteOffset":8080,
			"target":34962
		},
		{
			"buffer":0,
			"byteLength":48,
			"byteOffset":8128,
			"target":34962
		},
		{
			"buffer":0,
			"byteLength":32,
			"byteOffset":8176,
			"target":34962
		},
		{
			"buffer":0,
			"byteLength":48,
			"byteOffset":8208,
			"target":34962
		},
		{
			"buffer":0,
			"byteLength":48,
			"byteOffset":8256,
			"target":34962
		},
		{
			"buffer":0,
			"byteLength":32,
			"byteOffset":8304,
			"target":34962
		},
		{
			"buffer":0,
			"byteLength":12,
			"byteOffset":8336,
			"target":34963
		},
		{
			"buffer":0,
			"byteLength":8,
			"byteOffset":8348
		},
		{
			"buffer":0,
			"byteLength":24,
			"byteOffset":8356
		},
		{
			"buffer":0,
			"byteLength":32,
			"byteOffset":8380
		},
		{
			"buffer":0,
			"byteLength":24,
			"byteOffset":8412
		},
		{
			"buffer":0,
			"byteLength":24,
			"byteOffset":8436
		},
		{
			"buffer":0,
			"byteLength":324,
			"byteOffset":8460
		},
		{
			"buffer":0,
			"byteLength":1296,
			"byteOffset":8784
		},
		{
			"buffer":0,
			"byteLength":24,
			"byteOffset":10080
		},
		{
			"buffer":0,
			"byteLength":24,
			"byteOffset":10104
		},
		{
			"buffer":0,
			"byteLength":1296,
			"byteOffset":10128
		},
		{
			"buffer":0,
			"byteLength":24,
			"byteOffset":11424
		},
		{
			"buffer":0,
			"byteLength":24,
			"byteOffset":11448
		},
		{
			"buffer":0,
			"byteLength":1296,
			"byteOffset":11472
		},
		{
			"buffer":0,
			"byteLength":24,
			"byteOffset":12768
		},
		{
			"buffer":0,
			"byteLength":24,
			"byteOffset":12792
		},
		{
			"buffer":0,
			"byteLength":1296,
			"byteOffset":12816
		},
		{
			"buffer":0,
			"byteLength":24,
			"byteOffset":14112
		},
		{
			"buffer":0,
			"byteLength":972,
			"byteOffset":14136
		},
		{
			"buffer":0,
			"byteLength":32,
			"byteOffset":15108
		},
		{
			"buffer":0,
			"byteLength":24,
			"byteOffset":15140
		},
		{
			"buffer":0,
			"byteLength":24,
			"byteOffset":15164
		},
		{
			"buffer":0,
			"byteLength":32,
			"byteOffset":15188
		},
		{
			"buffer":0,
			"byteLength":24,
			"byteOffset":15220
		},
		{
			"buffer":0,
			"byteLength":24,
			"byteOffset":15244
		},
		{
			"buffer":0,
			"byteLength":32,
			"byteOffset":15268
		},
		{
			"buffer":0,
			"byteLength":24,
			"byteOffset":15300
		},
		{
			"buffer":0,
			"byteLength":24,
			"byteOffset":15324
		},
		{
			"buffer":0,
			"byteLength":32,
			"byteOffset":15348
		},
		{
			"buffer":0,
			"byteLength":24,
			"byteOffset":15380
		},
		{
			"buffer":0,
			"byteLength":24,
			"byteOffset":15404
		},
		{
			"buffer":0,
			"byteLength":32,
			"byteOffset":15428
		},
		{
			"buffer":0,
			"byteLength":24,
			"byteOffset":15460
		},
		{
			"buffer":0,
			"byteLength":24,
			"byteOffset":15484
		},
		{
			"buffer":0,
			"byteLength":32,
			"byteOffset":15508
		},
		{
			"buffer":0,
			"byteLength":24,
			"byteOffset":15540
		},
		{
			"buffer":0,
			"byteLength":320,
			"byteOffset":15564
		}
	],
	"samplers":[
		{
			"magFilter":9729,
			"minFilter":9987
		}
	],
	"buffers":[
		{
			"byteLength":15884,
			"uri":"vehicle_depot.bin"
		}
	]
}
