{
	"asset":{
		"generator":"Khronos glTF Blender I/O v4.3.47",
		"version":"2.0"
	},
	"scene":0,
	"scenes":[
		{
			"name":"Scene",
			"nodes":[
				0,
				1,
				2,
				3,
				4,
				5,
				6,
				7,
				8,
				9,
				10
			]
		}
	],
	"nodes":[
		{
			"mesh":0,
			"name":"Cylinder",
			"rotation":[
				0,
				-1,
				0,
				7.549790126404332e-08
			],
			"scale":[
				16,
				2,
				16
			],
			"translation":[
				-0.16673284769058228,
				-3.171651840209961,
				1.0203909873962402
			]
		},
		{
			"mesh":1,
			"name":"Cube",
			"rotation":[
				0,
				-1,
				0,
				7.549790126404332e-08
			],
			"scale":[
				2.1838219165802,
				5.890236854553223,
				2.1838219165802
			],
			"translation":[
				4.3236799240112305,
				3.6496596336364746,
				-2.123152494430542
			]
		},
		{
			"mesh":2,
			"name":"Cube.001",
			"rotation":[
				0,
				-1,
				0,
				7.549790126404332e-08
			],
			"scale":[
				2.1838219165802,
				5.890236854553223,
				2.1838219165802
			],
			"translation":[
				-4.694266319274902,
				3.6496596336364746,
				-2.123150587081909
			]
		},
		{
			"mesh":3,
			"name":"Cube.002",
			"rotation":[
				0,
				-0.9508064389228821,
				-0.3097858428955078,
				7.178389438422528e-08
			],
			"scale":[
				2.2045626640319824,
				3.6572508811950684,
				2.2045629024505615
			],
			"translation":[
				-0.16673314571380615,
				10.380472183227539,
				-0.8916542530059814
			]
		},
		{
			"mesh":4,
			"name":"Cube.004",
			"rotation":[
				0,
				-0.8923510909080505,
				0.4513421356678009,
				6.737063529271836e-08
			],
			"scale":[
				12.9088773727417,
				2.1638903617858887,
				1.3334358930587769
			],
			"translation":[
				-0.16673314571380615,
				16.551151275634766,
				-1.0108420848846436
			]
		},
		{
			"mesh":5,
			"name":"Cube.003",
			"rotation":[
				0,
				-0.8923510909080505,
				0.4513421356678009,
				6.737063529271836e-08
			],
			"scale":[
				12.9088773727417,
				2.1638903617858887,
				1.3334358930587769
			],
			"translation":[
				-0.16673246026039124,
				13.151205062866211,
				3.6107962131500244
			]
		},
		{
			"mesh":6,
			"name":"Cube.005",
			"rotation":[
				0,
				-0.8923510909080505,
				0.4513421356678009,
				6.737063529271836e-08
			],
			"scale":[
				12.9088773727417,
				2.1638903617858887,
				1.3334358930587769
			],
			"translation":[
				-0.16673167049884796,
				9.327486038208008,
				8.808481216430664
			]
		},
		{
			"mesh":7,
			"name":"Cube.006",
			"rotation":[
				0,
				-0.8923510313034058,
				0.45134207606315613,
				6.7370628187291e-08
			],
			"scale":[
				1.3067710399627686,
				9.222949981689453,
				0.9125987887382507
			],
			"translation":[
				-8.618804931640625,
				14.307769775390625,
				1.3764162063598633
			]
		},
		{
			"mesh":8,
			"name":"Cube.007",
			"rotation":[
				0,
				-0.8923510313034058,
				0.45134207606315613,
				6.7370628187291e-08
			],
			"scale":[
				1.3067710399627686,
				9.222949981689453,
				0.9125987887382507
			],
			"translation":[
				0.11645558476448059,
				14.307769775390625,
				1.3764148950576782
			]
		},
		{
			"mesh":9,
			"name":"Cube.008",
			"rotation":[
				0,
				-0.8923510313034058,
				0.45134207606315613,
				6.7370628187291e-08
			],
			"scale":[
				1.3067710399627686,
				9.222949981689453,
				0.9125987887382507
			],
			"translation":[
				9.087339401245117,
				14.307769775390625,
				1.3764135837554932
			]
		},
		{
			"mesh":10,
			"name":"Cube.009",
			"rotation":[
				0,
				-0.8923510909080505,
				0.4513421356678009,
				6.737063529271836e-08
			],
			"scale":[
				12.9088773727417,
				2.1638903617858887,
				1.3334358930587769
			],
			"translation":[
				-0.16673386096954346,
				19.878387451171875,
				-5.651545524597168
			]
		}
	],
	"meshes":[
		{
			"name":"Cylinder",
			"primitives":[
				{
					"attributes":{
						"POSITION":0,
						"NORMAL":1,
						"TEXCOORD_0":2
					},
					"indices":3
				}
			]
		},
		{
			"name":"Cube.001",
			"primitives":[
				{
					"attributes":{
						"POSITION":4,
						"NORMAL":5,
						"TEXCOORD_0":6
					},
					"indices":7
				}
			]
		},
		{
			"name":"Cube.002",
			"primitives":[
				{
					"attributes":{
						"POSITION":8,
						"NORMAL":9,
						"TEXCOORD_0":10
					},
					"indices":7
				}
			]
		},
		{
			"name":"Cube.003",
			"primitives":[
				{
					"attributes":{
						"POSITION":11,
						"NORMAL":12,
						"TEXCOORD_0":13
					},
					"indices":7
				}
			]
		},
		{
			"name":"Cube.005",
			"primitives":[
				{
					"attributes":{
						"POSITION":14,
						"NORMAL":15,
						"TEXCOORD_0":16
					},
					"indices":17
				}
			]
		},
		{
			"name":"Cube.007",
			"primitives":[
				{
					"attributes":{
						"POSITION":18,
						"NORMAL":19,
						"TEXCOORD_0":20
					},
					"indices":17
				}
			]
		},
		{
			"name":"Cube.008",
			"primitives":[
				{
					"attributes":{
						"POSITION":21,
						"NORMAL":22,
						"TEXCOORD_0":23
					},
					"indices":17
				}
			]
		},
		{
			"name":"Cube.009",
			"primitives":[
				{
					"attributes":{
						"POSITION":24,
						"NORMAL":25,
						"TEXCOORD_0":26
					},
					"indices":7
				}
			]
		},
		{
			"name":"Cube.010",
			"primitives":[
				{
					"attributes":{
						"POSITION":27,
						"NORMAL":28,
						"TEXCOORD_0":29
					},
					"indices":7
				}
			]
		},
		{
			"name":"Cube.011",
			"primitives":[
				{
					"attributes":{
						"POSITION":30,
						"NORMAL":31,
						"TEXCOORD_0":32
					},
					"indices":7
				}
			]
		},
		{
			"name":"Cube.012",
			"primitives":[
				{
					"attributes":{
						"POSITION":33,
						"NORMAL":34,
						"TEXCOORD_0":35
					},
					"indices":17
				}
			]
		}
	],
	"accessors":[
		{
			"bufferView":0,
			"componentType":5126,
			"count":30,
			"max":[
				0.9510565400123596,
				1,
				0.80901700258255
			],
			"min":[
				-0.9510565400123596,
				-1,
				-1
			],
			"type":"VEC3"
		},
		{
			"bufferView":1,
			"componentType":5126,
			"count":30,
			"type":"VEC3"
		},
		{
			"bufferView":2,
			"componentType":5126,
			"count":30,
			"type":"VEC2"
		},
		{
			"bufferView":3,
			"componentType":5123,
			"count":48,
			"type":"SCALAR"
		},
		{
			"bufferView":4,
			"componentType":5126,
			"count":24,
			"max":[
				1,
				1,
				1
			],
			"min":[
				-1,
				-1,
				-1
			],
			"type":"VEC3"
		},
		{
			"bufferView":5,
			"componentType":5126,
			"count":24,
			"type":"VEC3"
		},
		{
			"bufferView":6,
			"componentType":5126,
			"count":24,
			"type":"VEC2"
		},
		{
			"bufferView":7,
			"componentType":5123,
			"count":36,
			"type":"SCALAR"
		},
		{
			"bufferView":8,
			"componentType":5126,
			"count":24,
			"max":[
				1,
				1,
				1
			],
			"min":[
				-1,
				-1,
				-1
			],
			"type":"VEC3"
		},
		{
			"bufferView":9,
			"componentType":5126,
			"count":24,
			"type":"VEC3"
		},
		{
			"bufferView":10,
			"componentType":5126,
			"count":24,
			"type":"VEC2"
		},
		{
			"bufferView":11,
			"componentType":5126,
			"count":24,
			"max":[
				1,
				1,
				1
			],
			"min":[
				-1,
				-1,
				-1
			],
			"type":"VEC3"
		},
		{
			"bufferView":12,
			"componentType":5126,
			"count":24,
			"type":"VEC3"
		},
		{
			"bufferView":13,
			"componentType":5126,
			"count":24,
			"type":"VEC2"
		},
		{
			"bufferView":14,
			"componentType":5126,
			"count":36,
			"max":[
				1,
				1,
				1
			],
			"min":[
				-1.2776999473571777,
				-1,
				-2.4377636909484863
			],
			"type":"VEC3"
		},
		{
			"bufferView":15,
			"componentType":5126,
			"count":36,
			"type":"VEC3"
		},
		{
			"bufferView":16,
			"componentType":5126,
			"count":36,
			"type":"VEC2"
		},
		{
			"bufferView":17,
			"componentType":5123,
			"count":60,
			"type":"SCALAR"
		},
		{
			"bufferView":18,
			"componentType":5126,
			"count":36,
			"max":[
				1,
				1,
				1
			],
			"min":[
				-1.2776999473571777,
				-1,
				-2.4377636909484863
			],
			"type":"VEC3"
		},
		{
			"bufferView":19,
			"componentType":5126,
			"count":36,
			"type":"VEC3"
		},
		{
			"bufferView":20,
			"componentType":5126,
			"count":36,
			"type":"VEC2"
		},
		{
			"bufferView":21,
			"componentType":5126,
			"count":36,
			"max":[
				1,
				1,
				1
			],
			"min":[
				-1.2776999473571777,
				-1,
				-2.4377636909484863
			],
			"type":"VEC3"
		},
		{
			"bufferView":22,
			"componentType":5126,
			"count":36,
			"type":"VEC3"
		},
		{
			"bufferView":23,
			"componentType":5126,
			"count":36,
			"type":"VEC2"
		},
		{
			"bufferView":24,
			"componentType":5126,
			"count":24,
			"max":[
				1,
				1,
				1
			],
			"min":[
				-1,
				-1,
				-1
			],
			"type":"VEC3"
		},
		{
			"bufferView":25,
			"componentType":5126,
			"count":24,
			"type":"VEC3"
		},
		{
			"bufferView":26,
			"componentType":5126,
			"count":24,
			"type":"VEC2"
		},
		{
			"bufferView":27,
			"componentType":5126,
			"count":24,
			"max":[
				1,
				1,
				1
			],
			"min":[
				-1,
				-1,
				-1
			],
			"type":"VEC3"
		},
		{
			"bufferView":28,
			"componentType":5126,
			"count":24,
			"type":"VEC3"
		},
		{
			"bufferView":29,
			"componentType":5126,
			"count":24,
			"type":"VEC2"
		},
		{
			"bufferView":30,
			"componentType":5126,
			"count":24,
			"max":[
				1,
				1,
				1
			],
			"min":[
				-1,
				-1,
				-1
			],
			"type":"VEC3"
		},
		{
			"bufferView":31,
			"componentType":5126,
			"count":24,
			"type":"VEC3"
		},
		{
			"bufferView":32,
			"componentType":5126,
			"count":24,
			"type":"VEC2"
		},
		{
			"bufferView":33,
			"componentType":5126,
			"count":36,
			"max":[
				1,
				1,
				1
			],
			"min":[
				-1.2776999473571777,
				-1,
				-2.4377636909484863
			],
			"type":"VEC3"
		},
		{
			"bufferView":34,
			"componentType":5126,
			"count":36,
			"type":"VEC3"
		},
		{
			"bufferView":35,
			"componentType":5126,
			"count":36,
			"type":"VEC2"
		}
	],
	"bufferViews":[
		{
			"buffer":0,
			"byteLength":360,
			"byteOffset":0,
			"target":34962
		},
		{
			"buffer":0,
			"byteLength":360,
			"byteOffset":360,
			"target":34962
		},
		{
			"buffer":0,
			"byteLength":240,
			"byteOffset":720,
			"target":34962
		},
		{
			"buffer":0,
			"byteLength":96,
			"byteOffset":960,
			"target":34963
		},
		{
			"buffer":0,
			"byteLength":288,
			"byteOffset":1056,
			"target":34962
		},
		{
			"buffer":0,
			"byteLength":288,
			"byteOffset":1344,
			"target":34962
		},
		{
			"buffer":0,
			"byteLength":192,
			"byteOffset":1632,
			"target":34962
		},
		{
			"buffer":0,
			"byteLength":72,
			"byteOffset":1824,
			"target":34963
		},
		{
			"buffer":0,
			"byteLength":288,
			"byteOffset":1896,
			"target":34962
		},
		{
			"buffer":0,
			"byteLength":288,
			"byteOffset":2184,
			"target":34962
		},
		{
			"buffer":0,
			"byteLength":192,
			"byteOffset":2472,
			"target":34962
		},
		{
			"buffer":0,
			"byteLength":288,
			"byteOffset":2664,
			"target":34962
		},
		{
			"buffer":0,
			"byteLength":288,
			"byteOffset":2952,
			"target":34962
		},
		{
			"buffer":0,
			"byteLength":192,
			"byteOffset":3240,
			"target":34962
		},
		{
			"buffer":0,
			"byteLength":432,
			"byteOffset":3432,
			"target":34962
		},
		{
			"buffer":0,
			"byteLength":432,
			"byteOffset":3864,
			"target":34962
		},
		{
			"buffer":0,
			"byteLength":288,
			"byteOffset":4296,
			"target":34962
		},
		{
			"buffer":0,
			"byteLength":120,
			"byteOffset":4584,
			"target":34963
		},
		{
			"buffer":0,
			"byteLength":432,
			"byteOffset":4704,
			"target":34962
		},
		{
			"buffer":0,
			"byteLength":432,
			"byteOffset":5136,
			"target":34962
		},
		{
			"buffer":0,
			"byteLength":288,
			"byteOffset":5568,
			"target":34962
		},
		{
			"buffer":0,
			"byteLength":432,
			"byteOffset":5856,
			"target":34962
		},
		{
			"buffer":0,
			"byteLength":432,
			"byteOffset":6288,
			"target":34962
		},
		{
			"buffer":0,
			"byteLength":288,
			"byteOffset":6720,
			"target":34962
		},
		{
			"buffer":0,
			"byteLength":288,
			"byteOffset":7008,
			"target":34962
		},
		{
			"buffer":0,
			"byteLength":288,
			"byteOffset":7296,
			"target":34962
		},
		{
			"buffer":0,
			"byteLength":192,
			"byteOffset":7584,
			"target":34962
		},
		{
			"buffer":0,
			"byteLength":288,
			"byteOffset":7776,
			"target":34962
		},
		{
			"buffer":0,
			"byteLength":288,
			"byteOffset":8064,
			"target":34962
		},
		{
			"buffer":0,
			"byteLength":192,
			"byteOffset":8352,
			"target":34962
		},
		{
			"buffer":0,
			"byteLength":288,
			"byteOffset":8544,
			"target":34962
		},
		{
			"buffer":0,
			"byteLength":288,
			"byteOffset":8832,
			"target":34962
		},
		{
			"buffer":0,
			"byteLength":192,
			"byteOffset":9120,
			"target":34962
		},
		{
			"buffer":0,
			"byteLength":432,
			"byteOffset":9312,
			"target":34962
		},
		{
			"buffer":0,
			"byteLength":432,
			"byteOffset":9744,
			"target":34962
		},
		{
			"buffer":0,
			"byteLength":288,
			"byteOffset":10176,
			"target":34962
		}
	],
	"buffers":[
		{
			"byteLength":10464,
			"uri":"gltf_bin/satellite_dish.bin"
		}
	]
}
