{
	"asset":{
		"generator":"Khronos glTF Blender I/O v4.3.47",
		"version":"2.0"
	},
	"scene":0,
	"scenes":[
		{
			"name":"Scene",
			"nodes":[
				0
			]
		}
	],
	"nodes":[
		{
			"mesh":0,
			"name":"Cube",
			"scale":[
				30,
				1.9999998807907104,
				20
			]
		}
	],
	"materials":[
		{
			"doubleSided":true,
			"name":"Material.001",
			"pbrMetallicRoughness":{
				"baseColorFactor":[
					0.04312780126929283,
					0.7604767680168152,
					0.056725651025772095,
					0.3
				],
				"metallicFactor":0,
				"roughnessFactor":0.5
			}, 
			"alphaMode": "BLEND"
		}
	],
	"meshes":[
		{
			"name":"Cube",
			"primitives":[
				{
					"attributes":{
						"POSITION":0,
						"NORMAL":1,
						"TEXCOORD_0":2
					},
					"indices":3,
					"material":0
				}
			]
		}
	],
	"accessors":[
		{
			"bufferView":0,
			"componentType":5126,
			"count":186,
			"max":[
				1,
				16.593904495239258,
				1
			],
			"min":[
				-1,
				-1,
				-1
			],
			"type":"VEC3"
		},
		{
			"bufferView":1,
			"componentType":5126,
			"count":186,
			"type":"VEC3"
		},
		{
			"bufferView":2,
			"componentType":5126,
			"count":186,
			"type":"VEC2"
		},
		{
			"bufferView":3,
			"componentType":5123,
			"count":300,
			"type":"SCALAR"
		}
	],
	"bufferViews":[
		{
			"buffer":0,
			"byteLength":2232,
			"byteOffset":0,
			"target":34962
		},
		{
			"buffer":0,
			"byteLength":2232,
			"byteOffset":2232,
			"target":34962
		},
		{
			"buffer":0,
			"byteLength":1488,
			"byteOffset":4464,
			"target":34962
		},
		{
			"buffer":0,
			"byteLength":600,
			"byteOffset":5952,
			"target":34963
		}
	],
	"buffers":[
		{
			"byteLength":6552,
			"uri":"gltf_bin/vehicle_depot.bin"
		}
	]
}
